<?xml version="1.0" standalone="no"?>
<!DOCTYPE svg PUBLIC "-//W3C//DTD SVG 1.1//EN" "http://www.w3.org/Graphics/SVG/1.1/DTD/svg11.dtd" >
<svg xmlns="http://www.w3.org/2000/svg">
<metadata></metadata>
<defs>
<font id="novecento_sans_widelight" horiz-adv-x="1368" >
<font-face units-per-em="2048" ascent="1681" descent="-367" />
<missing-glyph horiz-adv-x="512" />
<glyph horiz-adv-x="2048" />
<glyph horiz-adv-x="2048" />
<glyph unicode="&#xd;" horiz-adv-x="681" />
<glyph unicode=" "  horiz-adv-x="512" />
<glyph unicode="&#x09;" horiz-adv-x="512" />
<glyph unicode="&#xa0;" horiz-adv-x="512" />
<glyph unicode="!" horiz-adv-x="448" d="M145 55q0 31 21.5 52.5t58.5 21.5t57.5 -21.5t20.5 -52.5q0 -33 -20.5 -54t-57.5 -21t-58.5 21.5t-21.5 53.5zM184 291v1143h80v-1143h-80z" />
<glyph unicode="&#x22;" horiz-adv-x="493" d="M98 1434h78l-6 -451h-66zM313 1434h76l-4 -451h-68z" />
<glyph unicode="#" horiz-adv-x="1349" d="M90 258l16 68h228l135 499h-223l18 68h221l70 254h70l-68 -254h404l69 254h70l-70 -254h230l-19 -68h-229l-133 -499h223l-17 -68h-227l-67 -258h-70l67 258h-403l-70 -258h-69l69 258h-225zM406 326h403l133 499h-403z" />
<glyph unicode="$" horiz-adv-x="940" d="M80 283l72 20q14 -125 104 -191.5t231 -66.5q135 0 215 64.5t80 181.5q0 57 -23.5 102t-44 69.5t-86 49.5t-84 29t-102.5 22l-24 6q-51 12 -83 20.5t-80 32t-76.5 53.5t-50.5 80t-22 115q0 127 85 208t239 89v164h68v-162q297 -16 354 -274l-72 -21q-27 111 -98.5 168.5 t-210.5 57.5t-215 -61.5t-76 -166.5q0 -117 78 -166t229 -79q78 -16 125 -30.5t114 -50.5t100.5 -99.5t33.5 -153.5q0 -141 -92 -225t-254 -93v-159h-68v161q-324 18 -366 306z" />
<glyph unicode="%" horiz-adv-x="1419" d="M74 803q0 365 248 364q246 0 245 -364q1 -363 -245 -363q-248 0 -248 363zM135 803q1 -299 187 -299q184 0 184 299q0 301 -184 301q-186 0 -187 -301zM479 0l387 1147h70l-387 -1147h-70zM850 350.5q0 364.5 248 364.5t248 -364.5t-248 -364.5t-248 364.5zM914 350 q0 -301 184 -301q186 0 186 301t-186 301q-184 0 -184 -301z" />
<glyph unicode="&#x26;" horiz-adv-x="1241" d="M125 305q0 125 73.5 202t182.5 91v4q-94 18 -167 88t-73 191q0 137 98.5 212.5t282.5 75.5q397 0 465 -309l-72 -20q-63 260 -389 260q-305 0 -305 -219q0 -106 81 -175t228 -69h650v-74l-189 -2v-184q0 -199 -112.5 -300.5t-327.5 -101.5q-205 0 -315.5 90.5 t-110.5 239.5zM203 305q0 -121 89 -190.5t261 -69.5q360 0 360 332v186h-383q-145 0 -236 -65.5t-91 -192.5z" />
<glyph unicode="'" horiz-adv-x="280" d="M98 1434h78l-6 -451h-66z" />
<glyph unicode="(" horiz-adv-x="671" d="M121 600q-1 852 491 1030l33 -71q-221 -80 -333.5 -310.5t-112.5 -648.5q0 -416 112.5 -647.5t333.5 -310.5l-33 -70q-248 90 -369.5 342t-121.5 686z" />
<glyph unicode=")" horiz-adv-x="671" d="M27 -358q221 80 333.5 311t112.5 647q0 799 -446 959l30 71q494 -178 494 -1030q0 -850 -494 -1028z" />
<glyph unicode="*" horiz-adv-x="1030" d="M178 1165l21 60l282 -86v295h66v-295l282 86l21 -60l-279 -90l170 -246l-53 -36l-174 243l-172 -243l-55 36l170 246z" />
<glyph unicode="+" d="M307 563v72h336v358h80v-358h336v-72h-336v-360h-80v360h-336z" />
<glyph unicode="," horiz-adv-x="397" d="M98 -178q49 18 83 70.5t36 93.5q-37 -8 -60.5 10t-23.5 53q0 31 20.5 51.5t57.5 20.5q82 0 82 -96q0 -63 -43 -137t-115 -103z" />
<glyph unicode="-" horiz-adv-x="1202" d="M225 563v72h750v-72h-750z" />
<glyph unicode="." horiz-adv-x="397" d="M121 55q0 31 21.5 52.5t56.5 21.5q37 0 57 -21.5t20 -52.5q0 -33 -20 -54t-57 -21t-57.5 21.5t-20.5 53.5z" />
<glyph unicode="/" horiz-adv-x="933" d="M59 0l732 1434h83l-731 -1434h-84z" />
<glyph unicode="0" horiz-adv-x="1046" d="M80 573.5q0 286.5 112.5 441t329.5 154.5t330 -155.5t113 -440t-114 -441.5t-329 -157q-217 0 -329.5 156t-112.5 442.5zM158 573q0 -252 90 -388t274 -136q365 0 365 524q0 523 -364.5 523t-364.5 -523z" />
<glyph unicode="1" horiz-adv-x="643" d="M98 858l291 289h74v-1147h-76v885q0 37 2 82t4 69v25h-2l-18 -21q-18 -20 -41 -44.5t-33 -32.5l-152 -158z" />
<glyph unicode="2" horiz-adv-x="980" d="M100 860q14 156 124 232.5t265 76.5q180 0 282.5 -98t102.5 -256q0 -115 -64.5 -206t-225.5 -224l-385 -311l2 -2h168h512v-72h-777v86l431 350q141 115 201.5 199t60.5 184q0 121 -82 200t-236 79q-150 0 -225.5 -74t-81.5 -184z" />
<glyph unicode="3" horiz-adv-x="970" d="M80 307l70 19q20 -133 114 -206t238 -73q150 0 229.5 79t79.5 198q0 121 -84 182t-233 61h-105v68h103q147 0 228 58.5t81 170.5q0 115 -78 175.5t-225 60.5q-166 0 -235.5 -73t-84.5 -187l-72 20q20 160 129 234.5t273 74.5q182 0 276.5 -81.5t94.5 -210.5 q0 -111 -65 -184t-165 -89v-6q106 -14 174 -88t68 -195q0 -154 -110.5 -247t-282.5 -93q-170 0 -284 92.5t-134 239.5z" />
<glyph unicode="4" horiz-adv-x="1036" d="M72 326v77l587 744h107v-750h170v-71h-170v-326h-78v326h-616zM147 399l3 -2h215h323v418v256h-4z" />
<glyph unicode="5" horiz-adv-x="1019" d="M100 305l70 17q23 -131 117 -203t229 -72q145 0 236.5 85t91.5 230q0 143 -92.5 228.5t-247.5 85.5q-121 0 -198 -49t-105 -117l-64 18l101 619h608v-74h-553l-43 -256q-6 -35 -11.5 -68.5t-10.5 -56t-9 -41t-6 -28.5l-2 -11l2 -2q35 49 118 91t193 42q174 0 285 -104 t111 -278.5t-113 -280t-291 -105.5q-160 0 -272.5 88.5t-143.5 241.5z" />
<glyph unicode="6" horiz-adv-x="1003" d="M84 379q0 184 133 356l320 412h90l-408 -524l4 -2q100 125 289 124q178 0 290.5 -106.5t112.5 -269.5q0 -172 -117.5 -283t-301.5 -111q-182 0 -297 110t-115 294zM160 369q0 -145 93 -233.5t247 -88.5q150 0 244 88t96 236q2 139 -91.5 224t-249 85t-247.5 -85t-92 -226 z" />
<glyph unicode="7" horiz-adv-x="919" d="M61 1073v74h807v-64l-610 -1083h-84l535 952q16 29 35.5 58.5t29.5 46.5l10 16l-2 2q-78 -2 -147 -2h-574z" />
<glyph unicode="8" horiz-adv-x="1009" d="M80 305q0 129 86 207t203 86v4q-74 8 -155 79t-81 189q0 127 99.5 213t271.5 86q170 0 270 -86t100 -211q0 -121 -80.5 -191.5t-150.5 -78.5v-4q113 -8 199 -86t86 -207q0 -150 -116 -240t-308 -90q-190 0 -307 90t-117 240zM158 307q0 -123 93 -193.5t253 -70.5 t254 70.5t94 193.5q0 121 -93 188.5t-255 67.5t-254 -67.5t-92 -188.5zM205 866q0 -109 85 -171t214 -62q135 2 217 68.5t82 167t-81 167t-218 66.5q-141 0 -220 -67t-79 -169z" />
<glyph unicode="9" horiz-adv-x="1021" d="M90 776q0 174 117 283.5t303 109.5q182 0 302 -106.5t120 -292.5q0 -117 -54.5 -224.5t-183.5 -260.5l-243 -285h-93l437 516l-2 2q-117 -127 -299.5 -127t-293 107.5t-110.5 277.5zM166 772q0 -160 98 -237.5t246 -77.5q150 0 248 82t98 237q0 160 -100.5 241t-245.5 81 t-244.5 -82t-99.5 -244z" />
<glyph unicode=":" horiz-adv-x="397" d="M121 55q0 31 21.5 52.5t56.5 21.5q37 0 57 -21.5t20 -52.5q0 -33 -20 -54t-57 -21t-57.5 21.5t-20.5 53.5zM121 784q0 31 21.5 52.5t56.5 21.5q37 0 57 -20.5t20 -53t-20 -53t-57 -20.5t-57.5 20.5t-20.5 52.5z" />
<glyph unicode=";" horiz-adv-x="397" d="M98 -178q49 18 83 70.5t36 93.5q-37 -8 -60.5 10t-23.5 53q0 31 20.5 51.5t57.5 20.5q82 0 82 -96q0 -63 -43 -137t-115 -101zM121 784q0 31 21.5 52.5t56.5 21.5q37 0 57 -20.5t20 -53t-20 -53t-57 -20.5t-57.5 20.5t-20.5 52.5z" />
<glyph unicode="&#x3c;" d="M182 563v78l924 469v-80l-844 -426v-4l844 -426v-80z" />
<glyph unicode="=" d="M307 401v72h752v-72h-752zM307 729v72h752v-72h-752z" />
<glyph unicode="&#x3e;" d="M262 94v80l844 426v4l-844 426v80l924 -469v-78z" />
<glyph unicode="?" horiz-adv-x="1140" d="M90 1087q43 184 173 279.5t331 95.5q231 0 344 -113.5t113 -271.5q0 -90 -38 -165.5t-110 -130t-146.5 -92.5t-174.5 -73v-325h-82v371q260 96 364.5 188t104.5 221q0 127 -89 220t-292 93q-344 0 -426 -317zM461 55q0 31 21.5 52.5t56.5 21.5q37 0 57 -21.5t20 -52.5 q0 -33 -20.5 -54t-57 -21t-57 21.5t-20.5 53.5z" />
<glyph unicode="@" horiz-adv-x="1603" d="M90 543q0 317 203 527t510 210q309 0 509.5 -209t200.5 -524q0 -180 -70.5 -284.5t-199.5 -104.5q-78 0 -135.5 46t-65.5 128h-4q-33 -82 -105.5 -128t-168.5 -46q-135 0 -231.5 98t-96.5 264q0 164 89 269.5t239 105.5q66 0 119 -19.5t81.5 -48t43 -49t20.5 -37.5h4 v-188q0 121 -71.5 196.5t-190.5 75.5q-125 0 -191.5 -84t-66.5 -221t71.5 -215t186.5 -78q117 0 183.5 75t78.5 194v364h74v-457q0 -180 141 -180q94 0 145.5 86t51.5 240q0 291 -181.5 478t-462 187t-460.5 -189t-180 -484q0 -299 170 -484.5t452 -185.5q90 0 169 15.5 t128 35t90 45t55.5 38.5t22.5 24l53 -43q-94 -96 -242.5 -139.5t-273.5 -43.5q-315 0 -504.5 206t-189.5 534z" />
<glyph unicode="A" horiz-adv-x="1470" d="M59 0l637 1434h80l637 -1434h-84l-201 453h-784l-201 -453h-84zM375 524h721l-187 420q-27 59 -69.5 159.5t-73.5 170.5l-29 67h-2l-172 -397z" />
<glyph unicode="B" horiz-adv-x="1267" d="M178 0v1434h465q197 0 310.5 -94.5t113.5 -247.5q0 -139 -72 -219.5t-172 -100.5v-6q55 -4 112.5 -25.5t115 -63.5t93.5 -116t36 -170q0 -188 -126 -289.5t-349 -101.5h-527zM258 72h449q180 0 286.5 79.5t106.5 237.5t-117 247t-283 89h-442v-653zM258 795h393 q152 0 245 73.5t93 214.5q0 129 -95 204t-263 75h-373v-567z" />
<glyph unicode="C" horiz-adv-x="1593" d="M90 721q0 336 208 538.5t525 202.5q236 0 404 -108.5t239 -270.5l-73 -22q-18 35 -41 69.5t-72 84t-107.5 85t-149.5 61t-198 25.5q-291 0 -474 -179t-183 -486q0 -305 185.5 -487.5t465.5 -182.5q195 0 353.5 95.5t238.5 265.5l76 -21q-86 -197 -262 -306.5t-404 -109.5 q-315 0 -523 205t-208 541z" />
<glyph unicode="D" horiz-adv-x="1470" d="M178 0v1434h440q342 0 552 -196t210 -527q0 -330 -206.5 -520.5t-536.5 -190.5h-459zM258 76h377q293 0 480.5 166t187.5 469q0 305 -190.5 476t-496.5 171h-358v-1282z" />
<glyph unicode="E" horiz-adv-x="1214" d="M178 0v1434h924v-76h-844v-561h674v-76h-674v-645h846v-76h-926z" />
<glyph unicode="F" horiz-adv-x="1181" d="M178 0v1434h924v-76h-844v-580h674v-76h-674v-702h-80z" />
<glyph unicode="G" horiz-adv-x="1630" d="M90 719q0 338 209 540.5t528 202.5q236 0 404 -108.5t239 -270.5l-75 -22q-20 45 -55 90t-99.5 103.5t-172 95t-239.5 36.5q-291 0 -476 -179t-185 -484q0 -307 187.5 -489.5t467.5 -182.5q211 0 374 98.5t218 212.5v273h-461v74h537v-709h-74v149.5t1 83t1 27.5h-2 q-33 -41 -76 -82t-115.5 -91t-178 -81t-226.5 -31q-313 0 -522 205t-209 539z" />
<glyph unicode="H" horiz-adv-x="1423" d="M178 0v1434h80v-637h907v637h80v-1434h-80v721h-907v-721h-80z" />
<glyph unicode="I" horiz-adv-x="436" d="M178 0v1434h80v-1434h-80z" />
<glyph unicode="J" horiz-adv-x="970" d="M0 147l43 68q119 -164 307 -164q182 0 276.5 124t94.5 362v897h82v-893q0 -272 -117 -419t-336 -147q-211 0 -350 172z" />
<glyph unicode="K" horiz-adv-x="1271" d="M178 0v1434h80v-473v-86.5v-77v-64.5t-1 -53.5t-1 -38.5v-25v-8h2l272 281l535 545h98l-555 -570l623 -866l-92 2l-590 807l-291 -297v-510h-80z" />
<glyph unicode="L" horiz-adv-x="1148" d="M178 0v1434h80v-1358h809v-76h-889z" />
<glyph unicode="M" horiz-adv-x="1628" d="M178 0v1434h82l553 -988h2l553 988h82v-1434h-80v793v79t1 94t1 98t1 94t2 79t1 55v21h-2l-18 -35q-16 -37 -68.5 -134t-122.5 -220l-323 -572h-56l-319 563q-45 80 -84 151t-61.5 114t-39 74.5t-22.5 43.5l-6 15h-2v-21q0 -20 1 -55t1 -79t1 -94t2 -98t1 -94.5v-78.5 v-793h-80z" />
<glyph unicode="N" horiz-adv-x="1466" d="M178 0v1434h80l954 -1311h2v10q0 10 -1 27.5t-1 40t-1 52.5t-2 61.5t-1 68.5v72v979h80v-1434h-80l-954 1321h-2v-10q0 -10 1 -27.5t1 -40t1 -53.5t2 -62.5t1 -69.5v-73v-985h-80z" />
<glyph unicode="O" horiz-adv-x="1650" d="M90 719q0 330 211 536.5t524 206.5q311 0 523.5 -206.5t212.5 -536.5q0 -332 -211 -538t-524.5 -206t-524.5 206t-211 538zM168 719q0 -305 187.5 -486.5t469.5 -181.5q281 0 469.5 181.5t188.5 486.5t-188.5 486t-469.5 181q-283 0 -470 -181t-187 -486z" />
<glyph unicode="P" horiz-adv-x="1140" d="M178 0v1434h385q248 0 383 -106.5t135 -315.5q0 -205 -136 -313.5t-382 -108.5h-305v-590h-80zM258 664h305q215 0 326.5 88t111.5 260q0 348 -438 348h-305v-696z" />
<glyph unicode="Q" horiz-adv-x="1650" d="M90 719q0 330 211 536.5t524 206.5q311 0 523.5 -206.5t212.5 -536.5q0 -319 -199 -524t-498 -220v-247h-82v247q-299 16 -495.5 220t-196.5 524zM168 719q0 -305 187 -486.5t470 -181.5q281 0 469.5 181.5t188.5 486.5t-188.5 486t-469.5 181q-283 0 -470 -181 t-187 -486z" />
<glyph unicode="R" horiz-adv-x="1189" d="M178 0v1434h387q244 0 380 -112t136 -316q0 -332 -356 -385l369 -621h-99l-354 608q-37 -2 -160 -2h-223v-606h-80zM258 676h320q426 0 426 330q0 178 -117 266t-324 88h-305v-684z" />
<glyph unicode="S" horiz-adv-x="1179" d="M80 387l76 21q8 -180 136 -269.5t331 -89.5q190 0 293.5 79t103.5 234q0 51 -13.5 95.5t-31 74t-51 55t-61 41t-73 30t-73 20.5t-76.5 16.5t-70 14.5q-55 12 -87.5 20t-86 25.5t-86 35t-72.5 47t-62.5 64.5t-38 84t-15.5 109q0 174 118.5 271t336.5 97q197 0 326.5 -86 t170.5 -262l-76 -20q-66 295 -421 295q-184 0 -279.5 -76t-95.5 -213q0 -66 23.5 -117t58 -82t94 -56.5t109 -38.5t122.5 -28q88 -16 136.5 -27.5t126 -43t119.5 -71.5t75 -109.5t33 -161.5q0 -190 -126 -290t-358 -100q-96 0 -181 18.5t-165 62.5t-130 128t-60 203z" />
<glyph unicode="T" horiz-adv-x="1282" d="M80 1358v76h1122v-76h-522v-1358h-78v1358h-522z" />
<glyph unicode="U" horiz-adv-x="1411" d="M160 580v854h78v-863q0 -520 467 -520q469 0 469 520v863h77v-854q0 -604 -546 -605q-545 0 -545 605z" />
<glyph unicode="V" horiz-adv-x="1355" d="M39 1434h86l330 -789q37 -86 72.5 -175t61 -152.5t46 -114.5t33.5 -80l10 -27h2l10 27q10 27 30.5 78t45.5 113.5t60.5 148.5t72.5 172l334 799h82l-598 -1434h-78z" />
<glyph unicode="W" horiz-adv-x="1898" d="M41 1434h82l239 -717q37 -106 87.5 -257t82 -245t31.5 -96h2q0 2 29 94t68.5 224t64.5 208l184 567h80l183 -567q25 -76 65.5 -208t69 -224t28.5 -94h2q0 2 31 96t79 240.5t83 249.5l248 729h80l-486 -1434h-74l-219 674q-31 94 -63.5 203.5t-50.5 169.5l-17 59h-2 l-18 -59q-16 -59 -50 -172t-67 -216l-213 -659h-76z" />
<glyph unicode="X" horiz-adv-x="1312" d="M41 0l567 750l-512 684h94l297 -398q172 -233 177 -233h2q2 0 170 233l288 398h95l-508 -686l561 -748h-96l-312 416q-63 84 -116.5 156.5t-71.5 97.5l-19 24h-2q-4 0 -215 -282l-303 -412h-96z" />
<glyph unicode="Y" horiz-adv-x="1288" d="M39 1434h92l371 -512l143 -197h2l17 23q16 23 50 71.5t68 98.5l377 516h90l-567 -783v-651h-78v651z" />
<glyph unicode="Z" horiz-adv-x="1327" d="M90 0v72l885 1089q49 61 91 110.5t58 67.5l17 19l-2 2h-4h-9.5h-16.5t-22.5 -1t-30 -1h-38h-43.5h-864v76h1124v-72l-877 -1086q-57 -72 -100 -123t-55 -65l-13 -14l3 -2h8q8 0 22.5 1t32.5 2t45 1h53h881v-76h-1145z" />
<glyph unicode="[" horiz-adv-x="673" d="M195 -426v2056h397v-74h-316v-1908h316v-74h-397z" />
<glyph unicode="\" horiz-adv-x="933" d="M59 1434h84l731 -1434h-86z" />
<glyph unicode="]" horiz-adv-x="673" d="M84 -352h313v1911h-313v73h397v-2058h-397v74z" />
<glyph unicode="^" d="M133 788l510 660h82l510 -660l-61 -40l-490 634l-489 -634z" />
<glyph unicode="_" horiz-adv-x="1482" d="M178 0h1127v-61h-1127v61z" />
<glyph unicode="`" horiz-adv-x="1038" d="M381 1827l72 26l204 -309h-79z" />
<glyph unicode="a" horiz-adv-x="1193" d="M59 0l498 1147h80l498 -1147h-82l-154 358h-606l-154 -358h-80zM324 430h544l-135 313q-133 311 -133 328h-4l-14 -35q-16 -37 -53 -126t-78 -181z" />
<glyph unicode="b" horiz-adv-x="1095" d="M178 0v1147h414q147 0 240.5 -80t93.5 -195q0 -213 -205 -260v-6q106 -10 196.5 -82.5t90.5 -210.5q0 -141 -102.5 -227t-272.5 -86h-455zM256 72h377q129 0 212 63.5t83 175.5q0 117 -88 185.5t-219 68.5h-365v-493zM256 635h322q106 0 188 58.5t82 168.5 q0 92 -74 152.5t-194 60.5h-324v-440z" />
<glyph unicode="c" horiz-adv-x="1339" d="M90 573q0 256 171 426t425 170q172 0 316.5 -84t216.5 -254l-74 -20q-147 285 -455 285q-227 0 -374.5 -145.5t-147.5 -377t147.5 -378t372.5 -146.5q158 0 280.5 77t188.5 204l74 -21q-74 -154 -218.5 -244t-324.5 -90q-256 0 -427 170t-171 428z" />
<glyph unicode="d" horiz-adv-x="1255" d="M178 0v1147h359q285 0 457.5 -156.5t172.5 -421.5q0 -262 -171 -415.5t-445 -153.5h-373zM256 74h293q240 0 390.5 130t150.5 365q0 238 -153 371t-402 133h-279v-999z" />
<glyph unicode="e" horiz-adv-x="1056" d="M178 0v1147h758v-74h-680v-436h541v-74h-541v-489h690v-74h-768z" />
<glyph unicode="f" horiz-adv-x="1011" d="M178 0v1147h752v-74h-674v-459h508v-73h-508v-541h-78z" />
<glyph unicode="g" horiz-adv-x="1380" d="M90 571q0 258 170 428t422 170q166 0 314.5 -81.5t224.5 -256.5l-74 -20q-51 115 -168 200t-291 85q-225 0 -372.5 -145.5t-147.5 -379.5q0 -231 147.5 -376.5t376.5 -145.5q170 0 300 78t177 168v186h-374v74h448v-555h-74v61.5v48t1 36t1 26.5v17.5v11.5v2h-2 q-184 -227 -477 -228q-262 0 -432 169t-170 427z" />
<glyph unicode="h" horiz-adv-x="1257" d="M178 0v1147h78v-510h745v510h76v-1147h-76v563h-745v-563h-78z" />
<glyph unicode="i" horiz-adv-x="434" d="M178 0v1147h78v-1147h-78z" />
<glyph unicode="j" horiz-adv-x="833" d="M0 106l43 60q92 -117 248 -117q145 0 221 96.5t76 280.5v721h76v-717q0 -219 -96.5 -337t-276.5 -118q-184 0 -291 131z" />
<glyph unicode="k" horiz-adv-x="1103" d="M178 0v1147h78v-369v-69.5v-62.5t-1 -52.5t-1 -41.5v-30.5v-21.5v-6h2q104 104 184 182l475 471h101l-465 -459l514 -688h-92l-477 637l-240 -238v-399h-78z" />
<glyph unicode="l" horiz-adv-x="980" d="M178 0v1147h78v-1073h645v-74h-723z" />
<glyph unicode="m" horiz-adv-x="1411" d="M178 0v1147h96l285 -508q43 -76 80 -145.5t51 -96.5l15 -28h4l14 28q14 27 52 96.5t81 147.5l283 506h94v-1147h-78v633l2 403h-2l-420 -753h-63l-418 757h-2v-16q0 -16 1 -44t1 -62.5v-73.5t1 -76t1 -73v-60v-635h-78z" />
<glyph unicode="n" horiz-adv-x="1263" d="M178 0v1147h78l752 -1022h2v8v21.5t-1 31t-1 41v48v53v55.5v764h75v-1147h-75l-754 1032h-2v-8q0 -8 1 -21.5t1 -32v-42t1 -49t1 -55v-58.5v-766h-78z" />
<glyph unicode="o" horiz-adv-x="1366" d="M90 571q0 258 171 428t421 170t422 -170t172 -428q0 -256 -172 -426t-422 -170t-421 170t-171 426zM168 571q0 -229 147.5 -375.5t366.5 -146.5t367.5 146.5t148.5 376t-148.5 377t-367.5 147.5t-366.5 -147t-147.5 -378z" />
<glyph unicode="p" horiz-adv-x="989" d="M178 0v1147h324q207 0 317.5 -88t110.5 -244t-110.5 -244t-317.5 -88h-246v-483h-78zM256 555h248q170 0 259 68.5t89 189.5q0 123 -89 192.5t-259 69.5h-248v-520z" />
<glyph unicode="q" horiz-adv-x="1363" d="M90 571q0 258 171 428t421 170t422 -170t172 -428q0 -246 -160 -412.5t-397 -181.5v-215h-78v215q-236 14 -393.5 181.5t-157.5 412.5zM168 571q0 -229 147.5 -375.5t366.5 -146.5t367.5 146.5t148.5 376t-148.5 377t-367.5 147.5t-366.5 -146.5t-147.5 -378.5z" />
<glyph unicode="r" horiz-adv-x="1050" d="M178 0v1147h326q203 0 315.5 -82t112.5 -238q0 -131 -78 -213t-213 -102l313 -512h-88l-305 502q-57 -4 -137 -4h-168v-498h-78zM256 567h248q350 0 350 254q0 252 -350 252h-248v-506z" />
<glyph unicode="s" horiz-adv-x="983" d="M80 283l72 20q14 -125 110 -191.5t248 -66.5q147 0 231 62.5t84 185.5q0 57 -24.5 102t-45 68.5t-89 47.5t-86 28t-107.5 22q-25 6 -37 8q-70 14 -111.5 28.5t-99 46.5t-87 88t-29.5 136q0 143 98 222t280 79q348 0 408 -274l-72 -21q-53 225 -327 226q-150 0 -230 -59.5 t-80 -168.5q0 -61 25 -105t76 -70.5t99 -41t126 -28.5q57 -10 80.5 -15.5t82 -23t89.5 -39t67.5 -56t54 -86t17.5 -114.5q0 -154 -104.5 -236t-286.5 -82q-72 0 -134.5 13.5t-128 44t-110.5 95.5t-59 155z" />
<glyph unicode="t" horiz-adv-x="1077" d="M80 1073v74h915v-74h-417v-1073h-78v1073h-420z" />
<glyph unicode="u" horiz-adv-x="1226" d="M160 461v686h78v-694q0 -403 376 -403l1 -1q376 0 376 404v694h78v-686q0 -485 -457 -486q-453 0 -452 486z" />
<glyph unicode="v" horiz-adv-x="1191" d="M39 1147h84l278 -615q39 -84 73 -159.5t55.5 -123.5t37 -84t23.5 -54l6 -17h2l8 17q6 16 20.5 51t36 82t55.5 121.5t73 160.5l282 621h80l-518 -1147h-78z" />
<glyph unicode="w" horiz-adv-x="1585" d="M41 1147h80l201 -582q43 -125 80.5 -241.5t54.5 -167.5l16 -54h2l17 50q16 51 48.5 154.5t65.5 201.5l152 465h71l152 -465q33 -98 65.5 -201.5t47.5 -154.5l16 -50h2l16 54q16 51 55.5 167.5t82.5 241.5l200 582h78l-395 -1147h-74l-155 473q-35 102 -67 202.5 t-46 147.5l-14 45h-2l-15 -45q-14 -47 -47 -148.5t-65 -203.5l-154 -471h-74z" />
<glyph unicode="x" horiz-adv-x="1122" d="M41 0l465 598l-426 549h92l197 -250q53 -70 104 -135.5t72 -89.5l18 -23h2l195 256l186 242h88l-426 -553l473 -594h-94l-246 309l-186 236h-2q-2 0 -186 -240l-236 -305h-90z" />
<glyph unicode="y" horiz-adv-x="1056" d="M39 1147h90l217 -305l182 -254h2l187 256l215 303h84l-449 -633v-514h-78v514z" />
<glyph unicode="z" horiz-adv-x="1124" d="M90 0v72l641 759q45 55 84 100.5t60.5 70t37 42t21.5 23.5l4 6h-4h-133h-695v74h928v-72l-622 -745q-53 -66 -96.5 -116t-66 -74.5t-36.5 -41t-18 -20.5l-5 -4l3 -2q49 2 135 2h706v-74h-944z" />
<glyph unicode="{" horiz-adv-x="755" d="M178 565v74q51 10 76 39q61 70 61 242v290q0 420 353 420v-71q-129 0 -202 -73t-73 -261v-299q0 -90 -17.5 -157t-45 -100.5t-44 -47t-32.5 -19.5q16 -6 33.5 -20.5t44 -48t44 -101t17.5 -156.5v-296q0 -188 73 -261t202 -73v-74q-352 0 -353 422v289q0 76 -12 131 t-27.5 82.5t-38 44t-33.5 19.5t-24 5h-2z" />
<glyph unicode="|" horiz-adv-x="319" d="M123 -152v1739h74v-1739h-74z" />
<glyph unicode="}" horiz-adv-x="755" d="M88 -354q129 0 203 73t74 261v299q0 254 137 323q-23 8 -48.5 29.5t-57 100.5t-31.5 196v297q0 188 -74 261t-203 73v71q352 0 352 -420v-290q0 -76 12.5 -131.5t28 -83t38 -44t33.5 -19.5t23 -5h3v-72q-55 -10 -84 -49q-53 -74 -54 -233v-289q0 -422 -352 -422v74z" />
<glyph unicode="~" d="M266 588q82 102 221 102q74 0 199 -45t201 -45q109 0 203 90l12 -72q-25 -33 -82 -62.5t-137 -29.5q-72 0 -199 45t-203 45q-106 0 -198 -96z" />
<glyph unicode="&#xa1;" horiz-adv-x="448" d="M147 1378q0 33 20.5 54.5t57.5 21.5t57.5 -21.5t20.5 -54.5q0 -31 -20.5 -52t-57.5 -21t-57.5 21.5t-20.5 51.5zM186 0v1143h78v-1143h-78z" />
<glyph unicode="&#xa2;" horiz-adv-x="1204" d="M90 573q0 227 134 370.5t354 156.5v213h71v-213q152 -8 271.5 -88t175.5 -234l-72 -20q-45 121 -149.5 195.5t-251.5 74.5q-205 0 -331 -125t-126 -329.5t124.5 -329.5t321.5 -125q135 0 240.5 64.5t161.5 181.5l71 -23q-59 -131 -175.5 -209t-260.5 -88v-223h-69v223 q-217 10 -353.5 154.5t-136.5 373.5z" />
<glyph unicode="&#xa3;" horiz-adv-x="1021" d="M74 0v74q90 16 119.5 74.5t29.5 162.5q0 92 -14 232h-135v69h127q-14 143 -15 217q0 172 93.5 256t255.5 84q324 0 368 -309l-72 -18q-20 125 -88.5 190.5t-205.5 65.5q-274 0 -275 -275q0 -47 17 -211h444v-69h-438q16 -160 16 -230q0 -203 -108 -241l2 -2h63 q61 2 157.5 3t182.5 1h334v-74h-858z" />
<glyph unicode="&#xa4;" horiz-adv-x="1306" d="M90 78l158 160q-121 143 -121 333q0 209 141 361l-149 147l49 47l151 -147q147 121 334 121q190 0 336 -119l150 145l47 -47l-148 -147q143 -150 144 -361q0 -188 -121 -335l156 -158l-50 -47l-153 155q-156 -141 -361 -141q-203 0 -360 141l-156 -155zM201 571.5 q0 -188.5 132 -320.5t320 -132q190 0 321.5 132t131.5 320q0 190 -131.5 322.5t-321.5 132.5q-188 0 -320 -133t-132 -321.5z" />
<glyph unicode="&#xa5;" horiz-adv-x="972" d="M41 1147h90l236 -375q104 -170 118 -184h2q20 20 121 184l238 375h86l-287 -449h215v-67h-260l-76 -119h336v-68h-336v-444h-75v444h-334v68l334 2l-76 117h-258v67h213z" />
<glyph unicode="&#xa6;" horiz-adv-x="319" d="M123 -152v584h74v-584h-74zM123 1004v583h74v-583h-74z" />
<glyph unicode="&#xa7;" d="M190 264l76 21q16 -242 436 -242q381 0 381 227q0 41 -11 72t-42 53.5t-59.5 38t-93 29.5t-110.5 22.5t-142 22.5q-68 10 -113 19.5t-109.5 30t-103.5 47t-67.5 70.5t-28.5 101q0 90 63.5 147.5t167.5 77.5q-211 66 -211 224q0 90 67.5 145t156 73.5t196.5 18.5 q424 0 475 -291l-69 -20q-31 135 -135.5 188.5t-276.5 53.5q-334 0 -334 -168q0 -41 21.5 -73t52.5 -51.5t92 -36.5t110.5 -26.5t139.5 -23.5q82 -12 127 -21.5t106.5 -25t92 -32.5t62.5 -44t45 -63.5t13 -84.5q0 -184 -211 -231q102 -33 154.5 -89t52.5 -153 q0 -152 -120.5 -223.5t-333.5 -71.5q-88 0 -165 11.5t-158 40t-133 89t-61 148.5zM279 778q0 -35 13 -62.5t43 -48t60.5 -35t86 -27.5t97.5 -21.5t113 -18.5q80 -12 148 -24q113 16 181.5 65t68.5 129q0 57 -32 97t-92.5 61.5t-120 34t-140.5 22.5q-33 4 -50 6 q-61 10 -102 19q-115 -14 -194.5 -61.5t-79.5 -135.5z" />
<glyph unicode="&#xa8;" horiz-adv-x="1038" d="M270 1671.5q0 26.5 19.5 46t46.5 19.5q29 0 48 -19.5t19 -46.5q0 -29 -19 -48t-48 -19q-27 0 -46.5 20.5t-19.5 47zM633 1671q0 29 19.5 47.5t45.5 18.5q29 0 48.5 -19.5t19.5 -46.5q0 -29 -20.5 -48t-47 -19t-46 19t-19.5 48z" />
<glyph unicode="&#xa9;" horiz-adv-x="1667" d="M90 542.5q0 321.5 215 533.5t528.5 212t529.5 -212t216 -533.5t-216 -533.5t-529 -212q-311 0 -527.5 212t-216.5 533.5zM154 545q0 -305 193.5 -495.5t486 -190.5t486 189.5t193.5 496.5t-193.5 494.5t-486 187.5t-486 -188.5t-193.5 -493.5zM424 545q0 174 113.5 282.5 t285.5 108.5q123 0 221.5 -61.5t135.5 -174.5l-64 -16q-14 59 -86 123.5t-203 64.5q-147 0 -240 -89t-93 -236.5t90 -237.5t235 -90q211 0 301 172l64 -20q-47 -100 -145.5 -158.5t-221.5 -58.5q-172 0 -282.5 110.5t-110.5 280.5z" />
<glyph unicode="&#xaa;" horiz-adv-x="790" d="M72 272v66h647v-66h-647zM72 481l295 666h57l295 -666h-68l-82 187h-348l-82 -187h-67zM246 725h299l-66 145q-20 47 -40.5 97.5t-30.5 74.5l-11 25h-4l-10 -25q-10 -25 -30.5 -74.5t-41.5 -97.5z" />
<glyph unicode="&#xab;" horiz-adv-x="1232" d="M123 567l481 480l51 -50l-436 -428v-4l436 -428l-51 -49zM578 567l481 480l51 -50l-434 -428v-4l434 -428l-51 -49z" />
<glyph unicode="&#xad;" horiz-adv-x="1202" d="M225 563v72h750v-72h-750z" />
<glyph unicode="&#xae;" horiz-adv-x="1667" d="M90 542.5q0 321.5 215 533.5t528.5 212t529.5 -212t216 -533.5t-216 -533.5t-529 -212q-311 0 -527.5 212t-216.5 533.5zM154 545q0 -305 193.5 -495.5t486 -190.5t486 189.5t193.5 496.5t-193.5 494.5t-486 187.5t-486 -188.5t-193.5 -493.5zM604 168v756h221 q135 0 209 -55.5t74 -159.5q0 -86 -49 -138.5t-133 -68.5l198 -334h-75l-193 326q-35 -4 -86 -5h-98v-321h-68zM672 551h155q211 0 211 153.5t-211 153.5h-155v-307z" />
<glyph unicode="&#xaf;" horiz-adv-x="1038" d="M242 1608v69h555v-69h-555z" />
<glyph unicode="&#xb0;" horiz-adv-x="491" d="M39 1438q0 88 59.5 147.5t147.5 59.5q90 0 147.5 -59.5t57.5 -147.5q0 -90 -57.5 -148.5t-147.5 -58.5t-148.5 58.5t-58.5 148.5zM100 1437.5q0 -63.5 40 -104.5t106 -41q63 0 103 42t40 104q0 63 -40 103t-103 40q-66 0 -106 -40t-40 -103.5z" />
<glyph unicode="&#xb1;" d="M307 0v72h752v-72h-752zM307 610v72h336v354h80v-354h336v-72h-336v-358h-80v358h-336z" />
<glyph unicode="&#xb2;" horiz-adv-x="696" d="M68 963v69l368 295q121 94 121 215q0 78 -52 126t-151 48q-94 0 -143 -38t-70 -124l-59 17q45 211 274 211q125 0 198 -66.5t73 -173.5q0 -139 -160 -266q-53 -43 -131 -104.5t-130 -101.5t-56 -44l2 -6q49 6 176 6h305v-63h-565z" />
<glyph unicode="&#xb3;" horiz-adv-x="696" d="M61 1198l68 16q4 -90 67.5 -147t168.5 -57q98 0 151 50t53 120q0 76 -59 123t-154 47h-75v57h73q94 0 151.5 45t57.5 115q0 61 -49 106t-162 45q-102 0 -146 -40t-61 -124l-59 17q37 211 272 211q135 0 203 -59.5t68 -147.5q0 -80 -52 -134.5t-126 -58.5v-6 q80 -10 133 -62t53 -136q0 -102 -78 -167t-194 -65q-123 0 -208 69.5t-96 182.5z" />
<glyph unicode="&#xb4;" horiz-adv-x="1038" d="M381 1544l205 309l71 -26l-196 -283h-80z" />
<glyph unicode="&#xb6;" horiz-adv-x="1071" d="M90 790.5q0 161.5 109.5 259t328.5 97.5h365v-1434h-80v1358h-207v-1358h-78v721q-219 0 -328.5 97.5t-109.5 259z" />
<glyph unicode="&#xb7;" horiz-adv-x="397" d="M121 577.5q0 32.5 21.5 53t56.5 20.5q37 0 57 -21.5t20 -51.5q0 -33 -20 -54.5t-57 -21.5t-57.5 21.5t-20.5 54z" />
<glyph unicode="&#xb8;" horiz-adv-x="1038" d="M360 -244q53 -37 154 -37q152 0 152 93q0 53 -53.5 76.5t-163.5 27.5v94h69v-47q217 -21 217 -158q0 -74 -56 -113.5t-158.5 -39.5t-160.5 37v67z" />
<glyph unicode="&#xb9;" horiz-adv-x="696" d="M117 1556l217 209h65v-739h205v-63h-477v63h205v469q0 23 1 68t3 82v36h-4q-2 0 -60 -61l-110 -107z" />
<glyph unicode="&#xba;" horiz-adv-x="858" d="M72 811q0 154 103.5 256t253 102t253.5 -102t104 -256q0 -152 -104 -253t-253.5 -101t-253 101t-103.5 253zM94 270v66h672v-66h-672zM137 811q0 -125 83 -208t208 -83t208 83t83 208q0 127 -83 211t-208 84t-208 -84t-83 -211z" />
<glyph unicode="&#xbb;" horiz-adv-x="1232" d="M123 137l434 428v4l-434 428l51 50l481 -480l-481 -479zM578 137l436 428v4l-436 428l51 50l481 -480l-481 -479z" />
<glyph unicode="&#xbc;" horiz-adv-x="1642" d="M117 1225l217 209h65v-740h205v-63h-477v63h205v469q0 23 1 68t3 82v37h-4q-2 0 -60 -62l-110 -106zM571 0l428 1434h74l-430 -1434h-72zM985 221v72l393 512h76v-518h154v-66h-154v-221h-68v221h-401zM1059 289l2 -4h8q6 0 18.5 1t26.5 1h34.5h39.5h198v207 q0 37 1.5 73.5t3.5 63t3 47t3 31.5v12h-6q-2 0 -167 -215t-165 -217z" />
<glyph unicode="&#xbd;" horiz-adv-x="1642" d="M117 1225l217 209h65v-740h205v-63h-477v63h205v469q0 23 1 68t3 82v37h-4q-2 0 -60 -62l-110 -106zM571 0l428 1434h74l-430 -1434h-72zM1014 0v70l370 295q119 96 119 217q0 78 -52 126t-151 48q-94 0 -142 -38t-71 -126l-59 18q45 211 275 211q125 0 197.5 -66.5 t72.5 -174.5q0 -137 -158 -267q-213 -172 -319 -247l2 -7q49 6 176 7h305v-66h-565z" />
<glyph unicode="&#xbe;" horiz-adv-x="1642" d="M61 866l68 17q4 -90 67.5 -147.5t168.5 -57.5q98 0 151 50t53 120q0 76 -59 123t-154 47h-75v57h73q94 0 151.5 45t57.5 115q0 61 -49 106t-162 45q-102 0 -146 -39.5t-61 -123.5l-59 16q37 211 272 211q135 0 203 -59.5t68 -147.5q0 -80 -52 -134t-126 -58v-7 q80 -10 133 -62t53 -136q0 -102 -78 -167t-194 -65q-123 0 -208 70t-96 182zM571 0l428 1434h74l-430 -1434h-72zM985 221v72l393 512h76v-518h154v-66h-154v-221h-68v221h-401zM1059 289l2 -4h8q6 0 18.5 1t26.5 1h34.5h39.5h198v207q0 37 1.5 73.5t3.5 63t3 47t3 31.5v12 h-6q-2 0 -167 -215t-165 -217z" />
<glyph unicode="&#xbf;" horiz-adv-x="1140" d="M90 356q0 90 38 166t109.5 130.5t146.5 92t173 72.5v326h84v-371q-260 -96 -364.5 -188t-104.5 -222q0 -127 88 -220t293 -93q346 0 424 318l74 -21q-43 -184 -174.5 -279.5t-329.5 -95.5q-233 0 -345 114t-112 271zM524 1378q0 33 20.5 54.5t57.5 21.5t57.5 -21.5 t20.5 -54.5q0 -31 -20.5 -52t-57.5 -21t-57.5 21.5t-20.5 51.5z" />
<glyph unicode="&#xc0;" horiz-adv-x="1470" d="M59 0l637 1434h80l637 -1434h-84l-201 453h-784l-201 -453h-84zM375 524h721l-187 420q-27 59 -69.5 159.5t-73.5 170.5l-29 67h-2l-172 -397zM522 1827l74 26l205 -309h-82z" />
<glyph unicode="&#xc1;" horiz-adv-x="1470" d="M59 0l637 1434h80l637 -1434h-84l-201 453h-784l-201 -453h-84zM375 524h721l-187 420q-27 59 -69.5 159.5t-73.5 170.5l-29 67h-2l-172 -397zM651 1544l205 309l74 -26l-197 -283h-82z" />
<glyph unicode="&#xc2;" horiz-adv-x="1470" d="M59 0l637 1434h80l637 -1434h-84l-201 453h-784l-201 -453h-84zM375 524h721l-187 420q-27 59 -69.5 159.5t-73.5 170.5l-29 67h-2l-172 -397zM477 1614l256 229l256 -231l-43 -47l-213 192l-213 -190z" />
<glyph unicode="&#xc3;" horiz-adv-x="1470" d="M59 0l637 1434h80l637 -1434h-84l-201 453h-784l-201 -453h-84zM375 524h721l-187 420q-27 59 -69.5 159.5t-73.5 170.5l-29 67h-2l-172 -397zM438 1681q59 74 152 74q53 0 135 -38t139 -38q76 0 123 52l27 -58q-57 -66 -150 -65q-55 0 -137 37.5t-133 37.5 q-82 0 -129 -59z" />
<glyph unicode="&#xc4;" horiz-adv-x="1470" d="M59 0l637 1434h80l637 -1434h-84l-201 453h-784l-201 -453h-84zM375 524h721l-187 420q-27 59 -69.5 159.5t-73.5 170.5l-29 67h-2l-172 -397zM487 1671.5q0 26.5 19.5 46t46.5 19.5q29 0 48.5 -19.5t19.5 -46.5q0 -29 -19.5 -48t-48.5 -19q-27 0 -46.5 20.5t-19.5 47z M850 1671q0 29 19.5 47.5t45.5 18.5q29 0 48.5 -19.5t19.5 -46.5q0 -29 -20.5 -48t-47 -19t-46 19t-19.5 48z" />
<glyph unicode="&#xc5;" horiz-adv-x="1470" d="M59 0l637 1434h80l637 -1434h-84l-201 453h-784l-201 -453h-84zM375 524h721l-187 420q-27 59 -69.5 159.5t-73.5 170.5l-29 67h-2l-172 -397zM565 1685.5q0 69.5 47 115.5t123 46t123 -46t47 -115.5t-47 -116.5t-123 -47t-123 47t-47 116.5zM627 1685.5 q0 -47.5 29.5 -77t78.5 -29.5q47 0 77 29.5t30 77t-30 76t-77 28.5q-49 0 -78.5 -28.5t-29.5 -76z" />
<glyph unicode="&#xc6;" horiz-adv-x="1994" d="M59 0l639 1434h1186v-74h-846v-565h676v-72h-676v-649h846v-74h-923v453h-617l-201 -453h-84zM375 524h586v836h-216z" />
<glyph unicode="&#xc7;" horiz-adv-x="1593" d="M90 721q0 336 208 538.5t525 202.5q236 0 404 -108.5t239 -270.5l-73 -22q-18 35 -41 69.5t-72 84t-107.5 85t-149.5 61t-198 25.5q-291 0 -474 -179t-183 -486q0 -305 185.5 -487.5t465.5 -182.5q195 0 353.5 95.5t238.5 265.5l76 -21q-84 -190 -255 -300.5t-388 -115.5 v-12q215 -20 215 -158q0 -74 -56.5 -113.5t-159 -39.5t-159.5 37v67q53 -37 154 -37q152 0 151 93q0 53 -52 76.5t-163 27.5v61q-297 16 -490.5 219t-193.5 525z" />
<glyph unicode="&#xc8;" horiz-adv-x="1214" d="M178 0v1434h924v-76h-844v-561h674v-76h-674v-645h846v-76h-926zM438 1827l74 26l205 -309h-82z" />
<glyph unicode="&#xc9;" horiz-adv-x="1214" d="M178 0v1434h924v-76h-844v-561h674v-76h-674v-645h846v-76h-926zM567 1544l205 309l74 -26l-197 -283h-82z" />
<glyph unicode="&#xca;" horiz-adv-x="1214" d="M178 0v1434h924v-76h-844v-561h674v-76h-674v-645h846v-76h-926zM391 1614l258 229l256 -231l-45 -47l-211 192l-213 -190z" />
<glyph unicode="&#xcb;" horiz-adv-x="1214" d="M178 0v1434h924v-76h-844v-561h674v-76h-674v-645h846v-76h-926zM403 1671.5q0 26.5 19.5 46t46.5 19.5q29 0 48.5 -19.5t19.5 -46.5q0 -29 -20.5 -48t-47.5 -19t-46.5 20.5t-19.5 47zM764 1671q0 27 19.5 46.5t48 19.5t48 -19.5t19.5 -46.5q0 -29 -19.5 -48t-48 -19 t-48 19t-19.5 48z" />
<glyph unicode="&#xcc;" horiz-adv-x="436" d="M8 1827l72 26l205 -309h-82zM178 0v1434h80v-1434h-80z" />
<glyph unicode="&#xcd;" horiz-adv-x="436" d="M137 1544l205 309l72 -26l-197 -283h-80zM178 0v1434h80v-1434h-80z" />
<glyph unicode="&#xce;" horiz-adv-x="436" d="M6 1616l213 227l213 -229l-45 -47l-168 182l-168 -180zM178 0v1434h80v-1434h-80z" />
<glyph unicode="&#xcf;" horiz-adv-x="436" d="M51 1671.5q0 26.5 19.5 46t46.5 19.5q29 0 48 -19.5t19 -46.5q0 -29 -20.5 -48t-47 -19t-46 20.5t-19.5 47zM178 0v1434h80v-1434h-80zM254 1671q0 27 19.5 46.5t48 19.5t48 -19.5t19.5 -46.5q0 -29 -20.5 -48t-47 -19t-47 19t-20.5 48z" />
<glyph unicode="&#xd0;" horiz-adv-x="1470" d="M25 723v74h153v637h440q342 0 552 -196t210 -527q0 -330 -206.5 -520.5t-536.5 -190.5h-459v723h-153zM258 76h377q293 0 480.5 166t187.5 469q0 305 -190.5 476t-496.5 171h-358v-561h395v-74h-395v-647z" />
<glyph unicode="&#xd1;" horiz-adv-x="1466" d="M178 0v1434h80l954 -1311h2v10q0 10 -1 27.5t-1 40t-1 52.5t-2 61.5t-1 68.5v72v979h80v-1434h-80l-954 1321h-2v-10q0 -10 1 -27.5t1 -40t1 -53.5t2 -62.5t1 -69.5v-73v-985h-80zM455 1681q59 74 149 74q51 0 135 -38t142 -38q76 1 123 52l26 -58q-57 -66 -149 -65 q-55 0 -137 37.5t-134 37.5q-82 0 -129 -59z" />
<glyph unicode="&#xd2;" horiz-adv-x="1650" d="M90 719q0 330 211 536.5t524 206.5q311 0 523.5 -206.5t212.5 -536.5q0 -332 -211 -538t-524.5 -206t-524.5 206t-211 538zM168 719q0 -305 187.5 -486.5t469.5 -181.5q281 0 469.5 181.5t188.5 486.5t-188.5 486t-469.5 181q-283 0 -470 -181t-187 -486zM614 1827l74 26 l205 -309h-82z" />
<glyph unicode="&#xd3;" horiz-adv-x="1650" d="M90 719q0 330 211 536.5t524 206.5q311 0 523.5 -206.5t212.5 -536.5q0 -332 -211 -538t-524.5 -206t-524.5 206t-211 538zM168 719q0 -305 187.5 -486.5t469.5 -181.5q281 0 469.5 181.5t188.5 486.5t-188.5 486t-469.5 181q-283 0 -470 -181t-187 -486zM743 1544 l205 309l74 -26l-197 -283h-82z" />
<glyph unicode="&#xd4;" horiz-adv-x="1650" d="M90 719q0 330 211 536.5t524 206.5q311 0 523.5 -206.5t212.5 -536.5q0 -332 -211 -538t-524.5 -206t-524.5 206t-211 538zM168 719q0 -305 187.5 -486.5t469.5 -181.5q281 0 469.5 181.5t188.5 486.5t-188.5 486t-469.5 181q-283 0 -470 -181t-187 -486zM567 1614 l258 229l256 -231l-45 -47l-211 192l-213 -190z" />
<glyph unicode="&#xd5;" horiz-adv-x="1650" d="M90 719q0 330 211 536.5t524 206.5q311 0 523.5 -206.5t212.5 -536.5q0 -332 -211 -538t-524.5 -206t-524.5 206t-211 538zM168 719q0 -305 187.5 -486.5t469.5 -181.5q281 0 469.5 181.5t188.5 486.5t-188.5 486t-469.5 181q-283 0 -470 -181t-187 -486zM530 1681 q59 74 150 74q53 0 136 -38t140 -38q76 1 123 52l27 -58q-57 -66 -150 -65q-55 0 -138 37.5t-134 37.5q-80 0 -127 -59z" />
<glyph unicode="&#xd6;" horiz-adv-x="1650" d="M90 719q0 330 211 536.5t524 206.5q311 0 523.5 -206.5t212.5 -536.5q0 -332 -211 -538t-524.5 -206t-524.5 206t-211 538zM168 719q0 -305 187.5 -486.5t469.5 -181.5q281 0 469.5 181.5t188.5 486.5t-188.5 486t-469.5 181q-283 0 -470 -181t-187 -486zM580 1671.5 q0 26.5 19 46t46 19.5q29 0 48.5 -19.5t19.5 -46.5q0 -29 -20.5 -48t-47.5 -19t-46 20.5t-19 47zM940 1671q0 27 19.5 46.5t48 19.5t48 -19.5t19.5 -46.5q0 -29 -19.5 -48t-48 -19t-48 19t-19.5 48z" />
<glyph unicode="&#xd7;" d="M367 336l268 268l-268 270l49 50l268 -269l268 267l49 -50l-266 -268l269 -268l-52 -49l-268 268l-268 -268z" />
<glyph unicode="&#xd8;" horiz-adv-x="1650" d="M90 719q0 330 211 536.5t524 206.5q244 0 430 -129l144 189l57 -43l-143 -189q248 -215 248 -571q0 -332 -211 -538t-525 -206q-236 0 -419 121l-148 -194l-57 45l147 192q-258 211 -258 580zM168 719q0 -334 225 -520l817 1075q-166 113 -385 112q-283 0 -470 -181 t-187 -486zM451 156q163 -105 374 -105q281 0 469.5 181.5t188.5 486.5q0 324 -215 512z" />
<glyph unicode="&#xd9;" horiz-adv-x="1411" d="M160 580v854h78v-863q0 -520 467 -520q469 0 469 520v863h77v-854q0 -604 -546 -605q-545 0 -545 605zM492 1827l73 26l205 -309h-82z" />
<glyph unicode="&#xda;" horiz-adv-x="1411" d="M160 580v854h78v-863q0 -520 467 -520q469 0 469 520v863h77v-854q0 -604 -546 -605q-545 0 -545 605zM621 1544l204 309l74 -26l-197 -283h-81z" />
<glyph unicode="&#xdb;" horiz-adv-x="1411" d="M160 580v854h78v-863q0 -520 467 -520q469 0 469 520v863h77v-854q0 -604 -546 -605q-545 0 -545 605zM446 1614l256 229l256 -231l-45 -47l-211 192l-213 -190z" />
<glyph unicode="&#xdc;" horiz-adv-x="1411" d="M160 580v854h78v-863q0 -520 467 -520q469 0 469 520v863h77v-854q0 -604 -546 -605q-545 0 -545 605zM457 1671.5q0 26.5 19.5 46t45.5 19.5q29 0 48.5 -19.5t19.5 -46.5q0 -29 -20.5 -48t-47 -19t-46 20.5t-19.5 47zM819 1671q0 29 18.5 47.5t47 18.5t48 -19.5 t19.5 -46.5q0 -29 -19 -48t-48 -19q-27 0 -46.5 19t-19.5 48z" />
<glyph unicode="&#xdd;" horiz-adv-x="1288" d="M39 1434h92l371 -512l143 -197h2l17 23q16 23 50 71.5t68 98.5l377 516h90l-567 -783v-651h-78v651zM569 1544l205 309l72 -26l-197 -283h-80z" />
<glyph unicode="&#xde;" horiz-adv-x="1105" d="M178 0v1434h80v-314h283q244 0 375 -101t131 -294t-131.5 -292t-374.5 -99h-283v-334h-80zM258 408h285q424 0 424 317q0 319 -424 319h-285v-636z" />
<glyph unicode="&#xdf;" horiz-adv-x="1161" d="M178 0v1147h797l-273 -463v-2h15q162 0 268.5 -91t106.5 -251t-104.5 -262.5t-272.5 -102.5t-277 88l39 60q94 -80 234 -80q135 0 220 82t85 209q0 125 -81 202.5t-214 77.5h-103v72l228 385l-2 2h-123h-465v-1073h-78z" />
<glyph unicode="&#xe0;" horiz-adv-x="1193" d="M59 0l498 1147h80l498 -1147h-82l-154 358h-606l-154 -358h-80zM324 430h544l-135 313q-133 311 -133 328h-4l-14 -35q-16 -37 -53 -126t-78 -181zM387 1540l72 27l205 -310h-82z" />
<glyph unicode="&#xe1;" horiz-adv-x="1193" d="M59 0l498 1147h80l498 -1147h-82l-154 358h-606l-154 -358h-80zM324 430h544l-135 313q-133 311 -133 328h-4l-14 -35q-16 -37 -53 -126t-78 -181zM516 1257l205 310l72 -27l-197 -283h-80z" />
<glyph unicode="&#xe2;" horiz-adv-x="1193" d="M59 0l498 1147h80l498 -1147h-82l-154 358h-606l-154 -358h-80zM324 430h544l-135 313q-133 311 -133 328h-4l-14 -35q-16 -37 -53 -126t-78 -181zM385 1329l213 227l213 -229l-45 -47l-168 182l-168 -180z" />
<glyph unicode="&#xe3;" horiz-adv-x="1193" d="M59 0l498 1147h80l498 -1147h-82l-154 358h-606l-154 -358h-80zM324 430h544l-135 313q-133 311 -133 328h-4l-14 -35q-16 -37 -53 -126t-78 -181zM332 1399q49 70 131 69q49 0 125 -37.5t127 -37.5q18 0 33.5 3t27.5 10t17.5 11t14.5 14.5t11 12.5l25 -62 q-45 -61 -129 -61q-51 0 -129 38t-123 38q-66 0 -107 -60z" />
<glyph unicode="&#xe4;" horiz-adv-x="1193" d="M59 0l498 1147h80l498 -1147h-82l-154 358h-606l-154 -358h-80zM324 430h544l-135 313q-133 311 -133 328h-4l-14 -35q-16 -37 -53 -126t-78 -181zM352 1384q0 27 18.5 46.5t45.5 19.5q29 0 48 -19.5t19 -46.5q0 -29 -20.5 -48t-47 -19t-45 19.5t-18.5 47.5zM713 1384.5 q0 28.5 18.5 47t47 18.5t48 -18.5t19.5 -47t-19.5 -48t-48.5 -19.5q-27 0 -46 19.5t-19 48z" />
<glyph unicode="&#xe5;" horiz-adv-x="1193" d="M59 0l498 1147h80l498 -1147h-82l-154 358h-606l-154 -358h-80zM324 430h544l-135 313q-133 311 -133 328h-4l-14 -35q-16 -37 -53 -126t-78 -181zM428 1398.5q0 69.5 47 116t123 46.5t123 -46.5t47 -116t-47 -116.5t-123 -47t-123 47t-47 116.5zM489 1399q0 -47 31 -77 t78 -30t78 30t31 77q0 45 -31 74.5t-78 29.5t-78 -29.5t-31 -74.5z" />
<glyph unicode="&#xe6;" horiz-adv-x="1644" d="M59 0l498 1147h967v-74h-678v-436h540v-74h-540v-489h688v-74h-764v356h-477l-154 -356h-80zM324 428h446v647h-170z" />
<glyph unicode="&#xe7;" horiz-adv-x="1339" d="M90 573q0 256 171 426t425 170q172 0 316.5 -84t216.5 -254l-74 -20q-147 285 -455 285q-227 0 -374.5 -145.5t-147.5 -377t147.5 -378t372.5 -146.5q158 0 280.5 77t188.5 204l74 -21q-70 -145 -205 -235t-305 -99v-18q217 -18 217 -158q0 -72 -57.5 -111.5t-160 -39.5 t-159.5 35v67q57 -37 154 -37q154 0 153 92q0 55 -53 78t-164 27v67q-242 12 -401.5 179.5t-159.5 416.5z" />
<glyph unicode="&#xe8;" horiz-adv-x="1056" d="M178 0v1147h758v-74h-680v-436h541v-74h-541v-489h690v-74h-768zM348 1540l72 27l207 -310h-82z" />
<glyph unicode="&#xe9;" horiz-adv-x="1056" d="M178 0v1147h758v-74h-680v-436h541v-74h-541v-489h690v-74h-768zM477 1257l205 310l74 -27l-197 -283h-82z" />
<glyph unicode="&#xea;" horiz-adv-x="1056" d="M178 0v1147h758v-74h-680v-436h541v-74h-541v-489h690v-74h-768zM301 1327l258 229l256 -231l-45 -47l-211 192l-213 -190z" />
<glyph unicode="&#xeb;" horiz-adv-x="1056" d="M178 0v1147h758v-74h-680v-436h541v-74h-541v-489h690v-74h-768zM313 1384.5q0 26.5 19.5 46t46.5 19.5t46 -18.5t19 -47t-19 -48t-46 -19.5t-46.5 20.5t-19.5 47zM674 1384q0 27 19.5 46.5t48 19.5t48 -19.5t19.5 -46.5q0 -29 -19.5 -48t-48 -19t-48 19.5t-19.5 47.5z " />
<glyph unicode="&#xec;" horiz-adv-x="434" d="M6 1540l74 27l205 -310h-82zM178 0v1147h78v-1147h-78z" />
<glyph unicode="&#xed;" horiz-adv-x="434" d="M135 1257l205 310l74 -27l-197 -283h-82zM178 0v1147h78v-1147h-78z" />
<glyph unicode="&#xee;" horiz-adv-x="434" d="M6 1329l213 227l213 -229l-45 -47l-168 182l-170 -180zM178 0v1147h78v-1147h-78z" />
<glyph unicode="&#xef;" horiz-adv-x="434" d="M51 1384q0 27 19.5 46.5t46 19.5t46 -18.5t19.5 -47t-19.5 -48t-46 -19.5t-46 19.5t-19.5 47.5zM178 0v1147h78v-1147h-78zM254 1384q0 27 19.5 46.5t48.5 19.5q27 0 46 -18.5t19 -47t-19.5 -48t-46 -19.5t-47 19.5t-20.5 47.5z" />
<glyph unicode="&#xf0;" horiz-adv-x="1255" d="M25 563v72h153v512h359q285 0 457.5 -156.5t172.5 -421.5q0 -262 -171 -415.5t-445 -153.5h-373v563h-153zM256 74h293q240 0 390.5 130t150.5 365q0 238 -153 371t-402 133h-279v-438h395v-72h-395v-489z" />
<glyph unicode="&#xf1;" horiz-adv-x="1263" d="M178 0v1147h78l752 -1022h2v8v21.5t-1 31t-1 41v48v53v55.5v764h75v-1147h-75l-754 1032h-2v-8q0 -8 1 -21.5t1 -32v-42t1 -49t1 -55v-58.5v-766h-78zM356 1399q49 70 131 69q49 0 125 -37.5t127 -37.5q18 0 33.5 3t28 10t17.5 11t14.5 14.5t11.5 12.5l24 -62 q-45 -61 -129 -61q-51 0 -129 38t-123 38q-66 0 -106 -60z" />
<glyph unicode="&#xf2;" horiz-adv-x="1366" d="M90 571q0 258 171 428t421 170t422 -170t172 -428q0 -256 -172 -426t-422 -170t-421 170t-171 426zM168 571q0 -229 147.5 -375.5t366.5 -146.5t367.5 146.5t148.5 376t-148.5 377t-367.5 147.5t-366.5 -147t-147.5 -378zM473 1540l74 27l205 -310h-82z" />
<glyph unicode="&#xf3;" horiz-adv-x="1366" d="M90 571q0 258 171 428t421 170t422 -170t172 -428q0 -256 -172 -426t-422 -170t-421 170t-171 426zM168 571q0 -229 147.5 -375.5t366.5 -146.5t367.5 146.5t148.5 376t-148.5 377t-367.5 147.5t-366.5 -147t-147.5 -378zM602 1257l205 310l74 -27l-197 -283h-82z" />
<glyph unicode="&#xf4;" horiz-adv-x="1366" d="M90 571q0 258 171 428t421 170t422 -170t172 -428q0 -256 -172 -426t-422 -170t-421 170t-171 426zM168 571q0 -229 147.5 -375.5t366.5 -146.5t367.5 146.5t148.5 376t-148.5 377t-367.5 147.5t-366.5 -147t-147.5 -378zM428 1327l256 229l256 -231l-43 -47l-213 192 l-213 -190z" />
<glyph unicode="&#xf5;" horiz-adv-x="1366" d="M90 571q0 258 171 428t421 170t422 -170t172 -428q0 -256 -172 -426t-422 -170t-421 170t-171 426zM168 571q0 -229 147.5 -375.5t366.5 -146.5t367.5 146.5t148.5 376t-148.5 377t-367.5 147.5t-366.5 -147t-147.5 -378zM420 1399q49 70 131 69q49 0 124 -37.5 t126 -37.5q16 0 30.5 3t22.5 6t18.5 10t14.5 10t11 11.5t9 10.5l25 -62q-47 -61 -129 -61q-53 0 -129 38t-123 38q-72 0 -107 -60z" />
<glyph unicode="&#xf6;" horiz-adv-x="1366" d="M90 571q0 258 171 428t421 170t422 -170t172 -428q0 -256 -172 -426t-422 -170t-421 170t-171 426zM168 571q0 -229 147.5 -375.5t366.5 -146.5t367.5 146.5t148.5 376t-148.5 377t-367.5 147.5t-366.5 -147t-147.5 -378zM438 1384.5q0 26.5 19.5 46t46.5 19.5 q29 0 48 -19.5t19 -46.5q0 -29 -19 -48t-48 -19q-27 0 -46.5 20.5t-19.5 47zM801 1384.5q0 28.5 19.5 47t45.5 18.5q29 0 48.5 -19.5t19.5 -46.5q0 -29 -20.5 -48t-47 -19t-46 19.5t-19.5 48z" />
<glyph unicode="&#xf7;" d="M307 563v72h752v-72h-752zM606 241.5q0 32.5 20.5 53t57.5 20.5t57.5 -21.5t20.5 -51.5q0 -33 -20.5 -54.5t-57.5 -21.5t-57.5 21.5t-20.5 54zM606 971q0 31 20.5 51t57.5 20t57.5 -20.5t20.5 -50.5q0 -33 -20.5 -54.5t-57.5 -21.5t-57.5 21.5t-20.5 54.5z" />
<glyph unicode="&#xf8;" horiz-adv-x="1366" d="M90 571q0 258 171 428t421 170q186 0 336 -100l127 162l55 -43l-125 -162q201 -174 201 -455q0 -256 -172 -426t-422 -170q-190 0 -344 105l-127 -164l-55 43l127 166q-193 172 -193 446zM168 571q0 -240 160 -389l645 830q-129 84 -291 84q-219 0 -366.5 -147 t-147.5 -378zM383 137q129 -88 299 -88q219 0 367.5 146.5t148.5 375.5q0 244 -170 398z" />
<glyph unicode="&#xf9;" horiz-adv-x="1226" d="M160 461v686h78v-694q0 -403 376.5 -403.5t376.5 403.5v694h78v-686q0 -485 -457 -486q-453 0 -452 486zM406 1540l73 27l205 -310h-82z" />
<glyph unicode="&#xfa;" horiz-adv-x="1226" d="M160 461v686h78v-694q0 -403 376.5 -403.5t376.5 403.5v694h78v-686q0 -485 -457 -486q-453 0 -452 486zM535 1257l204 310l74 -27l-197 -283h-81z" />
<glyph unicode="&#xfb;" horiz-adv-x="1226" d="M160 461v686h78v-694q0 -403 376.5 -403.5t376.5 403.5v694h78v-686q0 -485 -457 -486q-453 0 -452 486zM360 1327l256 229l256 -231l-43 -47l-213 192l-213 -190z" />
<glyph unicode="&#xfc;" horiz-adv-x="1226" d="M160 461v686h78v-694q0 -403 376.5 -403.5t376.5 403.5v694h78v-686q0 -485 -457 -486q-453 0 -452 486zM371 1384.5q0 26.5 19.5 46t45.5 19.5q29 0 48.5 -19.5t19.5 -46.5q0 -29 -20.5 -48t-47 -19t-46 20.5t-19.5 47zM733 1384.5q0 28.5 18.5 47t47 18.5t48 -19.5 t19.5 -46.5q0 -29 -19 -48t-48 -19q-27 0 -46.5 19.5t-19.5 48z" />
<glyph unicode="&#xfd;" horiz-adv-x="1056" d="M39 1147h90l217 -305l182 -254h2l187 256l215 303h84l-449 -633v-514h-78v514zM453 1257l204 310l72 -27l-194 -283h-82z" />
<glyph unicode="&#xfe;" horiz-adv-x="915" d="M178 0v1147h78v-270h178q211 0 316.5 -70t105.5 -223q0 -152 -105.5 -221.5t-316.5 -69.5h-178v-293h-78zM256 362h180q178 0 260 50.5t82 171.5t-84 171t-258 50h-180v-443z" />
<glyph unicode="&#xff;" horiz-adv-x="1056" d="M39 1147h90l217 -305l182 -254h2l187 256l215 303h84l-449 -633v-514h-78v514zM289 1384.5q0 26.5 19.5 46t46 19.5t46 -18.5t19.5 -47t-19.5 -48t-46 -19.5t-46 20.5t-19.5 47zM649 1384q0 27 19.5 46.5t48 19.5t48 -19.5t19.5 -46.5q0 -29 -19.5 -48t-48 -19t-48 19.5 t-19.5 47.5z" />
<glyph unicode="&#x152;" horiz-adv-x="2013" d="M90 716.5q0 323.5 207 524.5t539 201q76 0 135 -8h921v-76h-843v-561h675v-74h-675v-647h845v-76h-921q-57 -8 -139 -8q-330 0 -537 200.5t-207 524zM168 719q0 -299 182 -476t484 -177q68 0 137 16v1272q-76 14 -137 14q-301 0 -483.5 -175t-182.5 -474z" />
<glyph unicode="&#x153;" horiz-adv-x="1697" d="M90 573q0 258 168 419t438 161q80 0 119 -6h752v-74h-678v-436h541v-74h-541v-489h688v-74h-764q-55 -6 -119 -6q-268 0 -436 160.5t-168 418.5zM168 575q0 -233 144 -371t384 -138q59 0 117 10v995q-61 10 -117 10q-240 0 -384 -137t-144 -369z" />
<glyph unicode="&#x178;" horiz-adv-x="1288" d="M39 1434h92l371 -512l143 -197h2l17 23q16 23 50 71.5t68 98.5l377 516h90l-567 -783v-651h-78v651zM406 1671q0 27 18 46.5t45 19.5q29 0 48.5 -19.5t19.5 -46.5q0 -29 -20.5 -48t-47.5 -19t-45 19t-18 48zM766 1671q0 29 18.5 47.5t47 18.5t48 -18.5t19.5 -47.5 t-19.5 -48t-48.5 -19q-27 0 -46 19t-19 48z" />
<glyph unicode="&#x2c6;" horiz-adv-x="1038" d="M262 1614l256 229l256 -231l-43 -47l-213 192l-213 -190z" />
<glyph unicode="&#x2dc;" horiz-adv-x="1038" d="M260 1686q49 70 131 69q49 0 125 -38t127 -38q14 0 25.5 2t21.5 6.5t16.5 6.5t14.5 9t10 9l10 10l7 9l26 -62q-53 -61 -129 -61q-51 0 -129 37.5t-123 37.5q-68 0 -108 -59z" />
<glyph unicode="&#x2000;" horiz-adv-x="926" />
<glyph unicode="&#x2001;" horiz-adv-x="1853" />
<glyph unicode="&#x2002;" horiz-adv-x="926" />
<glyph unicode="&#x2003;" horiz-adv-x="1853" />
<glyph unicode="&#x2004;" horiz-adv-x="617" />
<glyph unicode="&#x2005;" horiz-adv-x="463" />
<glyph unicode="&#x2006;" horiz-adv-x="308" />
<glyph unicode="&#x2007;" horiz-adv-x="308" />
<glyph unicode="&#x2008;" horiz-adv-x="231" />
<glyph unicode="&#x2009;" horiz-adv-x="370" />
<glyph unicode="&#x200a;" horiz-adv-x="102" />
<glyph unicode="&#x2010;" horiz-adv-x="1202" d="M225 563v72h750v-72h-750z" />
<glyph unicode="&#x2011;" horiz-adv-x="1202" d="M225 563v72h750v-72h-750z" />
<glyph unicode="&#x2012;" horiz-adv-x="1202" d="M225 563v72h750v-72h-750z" />
<glyph unicode="&#x2013;" d="M225 563v72h918v-72h-918z" />
<glyph unicode="&#x2014;" horiz-adv-x="2095" d="M225 563v72h1645v-72h-1645z" />
<glyph unicode="&#x2018;" horiz-adv-x="397" d="M104 1217q0 66 43 140.5t115 102.5l37 -47q-47 -18 -82 -68.5t-37 -89.5q37 8 60.5 -9t23.5 -52q0 -33 -20.5 -53.5t-57.5 -20.5q-82 0 -82 97z" />
<glyph unicode="&#x2019;" horiz-adv-x="397" d="M98 1167q47 16 82 66.5t37 89.5q-37 -8 -60.5 10.5t-23.5 52.5q0 33 20.5 52.5t57.5 19.5q82 0 82 -96q0 -63 -43 -139t-115 -103z" />
<glyph unicode="&#x201a;" horiz-adv-x="397" d="M98 -178q47 16 82 66t37 89q-37 -8 -60.5 10.5t-23.5 53.5q0 33 20.5 52.5t57.5 19.5q82 0 82 -97q0 -63 -43 -139t-115 -102z" />
<glyph unicode="&#x201c;" horiz-adv-x="724" d="M98 1217q0 66 43 140.5t115 102.5l37 -47q-47 -18 -82 -68.5t-35 -89.5q35 8 58.5 -9t23.5 -52q0 -33 -20.5 -53.5t-57.5 -20.5q-82 0 -82 97zM426 1217q0 66 43 140.5t115 102.5l37 -47q-47 -18 -81 -68.5t-36 -89.5q37 8 59.5 -9t22.5 -52q0 -33 -20.5 -53.5 t-57.5 -20.5t-59.5 25.5t-22.5 71.5z" />
<glyph unicode="&#x201d;" horiz-adv-x="724" d="M98 1167q47 16 82 66.5t37 89.5q-37 -8 -60.5 10.5t-23.5 52.5q0 33 20.5 52.5t57.5 19.5q82 0 82 -96q0 -63 -43 -139t-115 -103zM426 1167q47 16 82 66.5t37 89.5q-37 -8 -60.5 10.5t-23.5 52.5q0 33 20.5 52.5t57.5 19.5q82 0 82 -96q0 -63 -43 -139t-115 -103z" />
<glyph unicode="&#x201e;" horiz-adv-x="684" d="M98 -178q47 16 82 66t37 89q-37 -8 -60.5 10.5t-23.5 53.5q0 33 20.5 52.5t57.5 19.5q82 0 82 -97q0 -63 -43 -139t-115 -102zM385 -178q47 16 82 66t37 89q-37 -8 -60.5 10.5t-23.5 53.5q0 33 20.5 52.5t57.5 19.5q82 0 82 -97q0 -63 -43 -139t-115 -102z" />
<glyph unicode="&#x2022;" horiz-adv-x="628" d="M178 583.5q0 57.5 40 96.5t97.5 39t96.5 -39t39 -96.5t-39 -96t-96.5 -38.5t-97.5 38.5t-40 96z" />
<glyph unicode="&#x2026;" horiz-adv-x="1339" d="M119 39q0 27 17.5 44t47.5 17q29 0 46.5 -17t17.5 -44t-16.5 -44.5t-47 -17.5t-48 17.5t-17.5 44.5zM594 39q0 27 17.5 44t47.5 17q29 0 46.5 -17t17.5 -44t-16.5 -44.5t-47 -17.5t-48 17.5t-17.5 44.5zM1092 39q0 27 16 44t47 17q29 0 46.5 -17t17.5 -44t-16.5 -44.5 t-47.5 -17.5q-29 0 -46 17.5t-17 44.5z" />
<glyph unicode="&#x202f;" horiz-adv-x="370" />
<glyph unicode="&#x2039;" horiz-adv-x="778" d="M123 567l481 480l51 -50l-436 -428v-4l436 -428l-51 -49z" />
<glyph unicode="&#x203a;" horiz-adv-x="778" d="M123 137l434 428v4l-434 428l51 50l481 -480l-481 -479z" />
<glyph unicode="&#x205f;" horiz-adv-x="463" />
<glyph unicode="&#x20ac;" horiz-adv-x="1247" d="M90 444v68h92q0 12 -1 34.5t-1 33.5l2 51h-92v67h98q25 223 150 347t340 124q172 0 295 -79.5t155 -227.5l-73 -20q-25 98 -114 177t-257 79q-188 0 -290.5 -104.5t-125.5 -295.5h439v-67h-445l-2 -49q0 -12 1 -36t1 -34h445v-68h-437q55 -393 426 -393q277 0 371 238 l72 -23q-51 -135 -163 -213t-284 -78q-217 0 -345 122t-157 347h-100z" />
<glyph unicode="&#x2122;" horiz-adv-x="1568" d="M80 1370v64h532v-64h-233v-602h-68v602h-231zM748 768v666h96l174 -342q14 -27 26.5 -54.5t18.5 -38.5l6 -12h2q4 4 53 103l172 344h95v-666h-68v311v51.5v55v52.5t1 48.5t1 38.5v27v10h-2l-8 -23q-10 -20 -27.5 -56t-34.5 -66l-153 -295h-60l-151 295q-14 29 -33.5 66.5 t-32.5 57.5l-10 21h-2v-10v-26.5v-39t1 -48.5t1 -52.5v-55v-51.5v-311h-65z" />
<glyph unicode="&#x25fc;" horiz-adv-x="1146" d="M0 0v1147h1147v-1147h-1147z" />
</font>
</defs>
</svg>
